<?xml version="1.0" encoding="UTF-8" standalone="no"?>
<!-- Created with Inkscape (http://www.inkscape.org/) -->

<svg
   xmlns:osb="http://www.openswatchbook.org/uri/2009/osb"
   xmlns:dc="http://purl.org/dc/elements/1.1/"
   xmlns:cc="http://creativecommons.org/ns#"
   xmlns:rdf="http://www.w3.org/1999/02/22-rdf-syntax-ns#"
   xmlns:svg="http://www.w3.org/2000/svg"
   xmlns="http://www.w3.org/2000/svg"
   xmlns:sodipodi="http://sodipodi.sourceforge.net/DTD/sodipodi-0.dtd"
   xmlns:inkscape="http://www.inkscape.org/namespaces/inkscape"
   width="334.17474"
   height="260.53693"
   id="svg2"
   version="1.1"
   inkscape:version="0.48.3.1 r9886"
   sodipodi:docname="baby-chick.svg">
  <defs
     id="defs4">
    <linearGradient
       id="linearGradient5409"
       osb:paint="solid">
      <stop
         style="stop-color:#ff7f2a;stop-opacity:1;"
         offset="0"
         id="stop5411" />
    </linearGradient>
    <linearGradient
       id="linearGradient5270"
       osb:paint="gradient">
      <stop
         style="stop-color:#ff0000;stop-opacity:1;"
         offset="0"
         id="stop5272" />
      <stop
         style="stop-color:#ff0000;stop-opacity:0;"
         offset="1"
         id="stop5274" />
    </linearGradient>
  </defs>
  <sodipodi:namedview
     id="base"
     pagecolor="#ffffff"
     bordercolor="#666666"
     borderopacity="1.0"
     inkscape:pageopacity="0.0"
     inkscape:pageshadow="2"
     inkscape:zoom="1.979899"
     inkscape:cx="70.941841"
     inkscape:cy="135.548"
     inkscape:document-units="px"
     inkscape:current-layer="layer1"
     showgrid="false"
     inkscape:window-width="1606"
     inkscape:window-height="1023"
     inkscape:window-x="1271"
     inkscape:window-y="-9"
     inkscape:window-maximized="1"
     fit-margin-top="0"
     fit-margin-left="0"
     fit-margin-right="0"
     fit-margin-bottom="0" />
  <metadata
     id="metadata7">
    <rdf:RDF>
      <cc:Work
         rdf:about="">
        <dc:format>image/svg+xml</dc:format>
        <dc:type
           rdf:resource="http://purl.org/dc/dcmitype/StillImage" />
        <dc:title></dc:title>
      </cc:Work>
    </rdf:RDF>
  </metadata>
  <g
     inkscape:label="Layer 1"
     inkscape:groupmode="layer"
     id="layer1"
     transform="translate(-153.76524,-334.84794)">
    <path
       style="fill:#ffff00;fill-opacity:1;fill-rule:evenodd;stroke:#000000;stroke-width:2;stroke-linecap:butt;stroke-linejoin:miter;stroke-miterlimit:4;stroke-opacity:1;stroke-dasharray:none"
       inkscape:transform-center-x="-12.121831"
       inkscape:transform-center-y="-5.0507627"
       d="m 393.77988,426.60857 c 50.88303,35.5641 2.03124,74.55731 -54.4907,114.57945 -41.25496,29.21188 -127.44776,-4.48608 -150.35369,-63.60265 -18.97914,-48.98212 35.92287,-143.3176 75.6024,-107.0392 73.74779,67.42651 89.89156,28.55887 129.24199,56.0624 z"
       inkscape:connector-curvature="0"
       sodipodi:nodetypes="sssss"
       id="path3026" />
    <path
       sodipodi:type="arc"
       style="fill:#ffffff"
       id="path3760-1"
       sodipodi:cx="236.3757"
       sodipodi:cy="428.08792"
       sodipodi:rx="12.121831"
       sodipodi:ry="11.111678"
       d="m 248.49753,428.08792 a 12.121831,11.111678 0 1 1 -24.24366,0 12.121831,11.111678 0 1 1 24.24366,0 z"
       transform="matrix(0.34179708,0.17091673,-0.27517228,0.55028599,259.34207,145.66352)" />
    <path
       style="fill:#ff7f2a;fill-opacity:1;stroke:#000000;stroke-width:1.62494504000000010;stroke-miterlimit:4;stroke-opacity:1;stroke-dasharray:none"
       d="m 217.05095,445.02795 c 0,5.94302 -10.20256,14.63808 -21.50996,10.76076 -12.64331,-4.33538 -31.48669,-16.95212 -26.6011,-27.01847 4.8856,-10.06636 14.72147,5.49694 26.6011,5.49694 9.78254,0 18.33303,3.30229 20.80937,8.0368"
       id="path5348"
       inkscape:connector-curvature="0"
       sodipodi:nodetypes="cscsc" />
    <path
       style="fill:#ff7f2a;fill-opacity:1;stroke:#000000;stroke-width:1.57888984999999990;stroke-miterlimit:4;stroke-opacity:1;stroke-dasharray:none"
       inkscape:transform-center-x="-3.9188379"
       d="m 444.58459,410.13995 c 5.90584,9.56925 -16.49943,4.88981 -32.37305,13.20601 -15.87363,8.31621 -19.20461,26.47888 -25.11044,16.90963 -5.90584,-9.56925 2.17465,-24.06827 18.04828,-32.38447 15.87363,-8.31621 33.52937,-7.30042 39.43521,2.26883 z"
       id="path5359"
       inkscape:connector-curvature="0"
       sodipodi:nodetypes="sssss" />
    <path
       style="fill:#ff7f2a;fill-opacity:1;stroke:#000000;stroke-width:1.57888984999999990;stroke-miterlimit:4;stroke-opacity:1;stroke-dasharray:none"
       inkscape:transform-center-x="-3.9188373"
       d="m 452.22959,429.98756 c 5.90584,7.39703 -16.49942,3.77983 -32.37305,10.20826 -15.87363,6.42843 -19.20461,20.46818 -25.11044,13.07114 -5.90584,-7.39702 2.17465,-18.60478 18.04828,-25.0332 15.87363,-6.42844 33.52938,-5.64323 39.43521,1.7538 z"
       id="path5359-6"
       inkscape:connector-curvature="0"
       sodipodi:nodetypes="sssss" />
    <path
       style="fill:#ff7f2a;fill-opacity:1;stroke:#000000;stroke-width:1.57888984999999990;stroke-miterlimit:4;stroke-opacity:1;stroke-dasharray:none"
       inkscape:transform-center-x="-1.0127135"
       d="m 457.30595,439.65685 c -3.32809,-10.75034 -14.49086,5.91938 -31.14911,12.50901 -16.65825,6.58964 -32.50383,0.60381 -29.17572,11.35415 3.3281,10.75034 18.40478,8.47275 35.06303,1.88312 16.65824,-6.58963 28.58991,-14.99595 25.2618,-25.74628 z"
       id="path5359-0"
       inkscape:connector-curvature="0"
       sodipodi:nodetypes="sssss"
       inkscape:transform-center-y="-1.1397061" />
    <path
       style="fill:#ff7f2a;fill-opacity:1;stroke:#000000;stroke-width:1.69059825000000010;stroke-miterlimit:4;stroke-opacity:1;stroke-dasharray:none"
       d="m 353.38063,449.29467 c 3.25126,9.6872 -15.10599,23.10855 -41.00207,29.9774 -25.89608,6.86886 -49.52468,4.58413 -52.77594,-5.10306 -3.25126,-9.6872 15.10601,-23.10854 41.00209,-29.97739 25.89608,-6.86886 49.52467,-4.58415 52.77592,5.10305 z"
       id="path5407"
       inkscape:connector-curvature="0" />
    <path
       style="fill:#ff7f2a;fill-opacity:1;stroke:#000000;stroke-width:1.69059825000000010;stroke-miterlimit:4;stroke-opacity:1;stroke-dasharray:none"
       d="m 351.56939,491.64346 c 3.25126,-9.6872 -15.10599,-23.10855 -41.00208,-29.97741 -25.89608,-6.86885 -49.52467,-4.58413 -52.77594,5.10307 -3.25125,9.6872 15.10602,23.10853 41.0021,29.97739 25.89608,6.86886 49.52467,4.58415 52.77592,-5.10305 z"
       id="path5407-3"
       inkscape:connector-curvature="0" />
    <path
       style="fill:none;stroke:#000000;stroke-width:2.67417145;stroke-linecap:butt;stroke-linejoin:miter;stroke-miterlimit:4;stroke-opacity:1;stroke-dasharray:none"
       d="m 284.58654,551.55716 c 7.04298,59.19235 5.57966,39.2637 -19.21683,39.2637"
       id="path5430"
       inkscape:connector-curvature="0" />
    <path
       style="fill:none;stroke:#000000;stroke-width:2.67417145;stroke-linecap:butt;stroke-linejoin:miter;stroke-miterlimit:4;stroke-opacity:1;stroke-dasharray:none"
       d="m 314.86346,550.28427 c 7.04298,59.19235 5.57966,39.2637 -19.21683,39.2637"
       id="path5430-2"
       inkscape:connector-curvature="0" />
    <path
       style="fill:#ff7f2a;fill-opacity:1;stroke:#000000;stroke-width:1.33804916999999990;stroke-miterlimit:4;stroke-opacity:1;stroke-dasharray:none"
       inkscape:transform-center-x="-3.1579633"
       d="m 264.59266,337.58334 c 9.68208,0.13717 -13.33505,10.52004 -24.59797,21.88638 -11.26293,11.36633 -6.50661,19.41193 -16.1887,19.27475 -9.68207,-0.13717 -8.40055,-9.46262 2.86239,-20.82895 11.26292,-11.36634 28.2422,-20.46936 37.92428,-20.33218 z"
       id="path5359-6-5"
       inkscape:connector-curvature="0"
       sodipodi:nodetypes="sssss"
       inkscape:transform-center-y="-1.4629339" />
    <path
       style="fill:#ff7f2a;fill-opacity:1;stroke:#000000;stroke-width:1.33804916999999990;stroke-miterlimit:4;stroke-opacity:1;stroke-dasharray:none"
       inkscape:transform-center-x="-3.1579633"
       d="m 280.53329,335.51849 c 9.68208,0.13717 -13.33505,10.52004 -24.59797,21.88639 -11.26293,11.36633 -6.50661,19.41192 -16.1887,19.27474 -9.68207,-0.13716 -8.40055,-9.46262 2.86239,-20.82894 11.26292,-11.36635 28.2422,-20.46937 37.92428,-20.33219 z"
       id="path5359-6-5-2"
       inkscape:connector-curvature="0"
       sodipodi:nodetypes="sssss"
       inkscape:transform-center-y="-1.4629339" />
    <path
       style="fill:#ff7f2a;fill-opacity:1;stroke:#000000;stroke-width:1.33804916999999990;stroke-miterlimit:4;stroke-opacity:1;stroke-dasharray:none"
       inkscape:transform-center-x="-3.1579633"
       d="m 288.39044,344.08992 c 9.68208,0.13717 -13.33505,10.52004 -24.59797,21.88639 -11.26293,11.36633 -6.50661,19.41192 -16.1887,19.27474 -9.68207,-0.13716 -8.40055,-9.46262 2.86239,-20.82894 11.26292,-11.36635 28.2422,-20.46937 37.92428,-20.33219 z"
       id="path5359-6-5-3"
       inkscape:connector-curvature="0"
       sodipodi:nodetypes="sssss"
       inkscape:transform-center-y="-1.4629339" />
    <path
       sodipodi:type="arc"
       style="fill:#000080"
       id="path3760-1-6"
       sodipodi:cx="236.3757"
       sodipodi:cy="428.08792"
       sodipodi:rx="12.121831"
       sodipodi:ry="11.111678"
       d="m 248.49753,428.08792 a 12.121831,11.111678 0 1 1 -24.24366,0 12.121831,11.111678 0 1 1 24.24366,0 z"
       transform="matrix(0.22919978,0.11892873,-0.18452301,0.38290465,246.70505,231.39187)" />
    <path
       sodipodi:type="arc"
       style="fill:#000000"
       id="path3760"
       sodipodi:cx="236.3757"
       sodipodi:cy="428.08792"
       sodipodi:rx="12.121831"
       sodipodi:ry="11.111678"
       d="m 248.49753,428.08792 a 12.121831,11.111678 0 1 1 -24.24366,0 12.121831,11.111678 0 1 1 24.24366,0 z"
       transform="matrix(0.12845482,0.07639309,-0.10341576,0.24595628,235.48799,300.46959)" />
    <path
       sodipodi:type="arc"
       style="fill:#ffffff"
       id="path3760-1-7"
       sodipodi:cx="236.3757"
       sodipodi:cy="428.08792"
       sodipodi:rx="12.121831"
       sodipodi:ry="11.111678"
       d="m 248.49753,428.08792 a 12.121831,11.111678 0 1 1 -24.24366,0 12.121831,11.111678 0 1 1 24.24366,0 z"
       transform="matrix(0.34179708,0.17091673,-0.27517228,0.55028599,268.80636,149.23494)" />
    <path
       sodipodi:type="arc"
       style="fill:#000080"
       id="path3760-1-6-1"
       sodipodi:cx="236.3757"
       sodipodi:cy="428.08792"
       sodipodi:rx="12.121831"
       sodipodi:ry="11.111678"
       d="m 248.49753,428.08792 a 12.121831,11.111678 0 1 1 -24.24366,0 12.121831,11.111678 0 1 1 24.24366,0 z"
       transform="matrix(0.22919978,0.11892873,-0.18452301,0.38290465,256.16934,234.96329)" />
    <path
       sodipodi:type="arc"
       style="fill:#000000"
       id="path3760-2"
       sodipodi:cx="236.3757"
       sodipodi:cy="428.08792"
       sodipodi:rx="12.121831"
       sodipodi:ry="11.111678"
       d="m 248.49753,428.08792 a 12.121831,11.111678 0 1 1 -24.24366,0 12.121831,11.111678 0 1 1 24.24366,0 z"
       transform="matrix(0.12845482,0.07639309,-0.10341576,0.24595628,244.95228,304.04101)" />
  </g>
</svg>
